<mxfile host="app.diagrams.net" modified="2024-02-27T08:04:09.803Z" agent="Mozilla/5.0 (Macintosh; Intel Mac OS X 10_15_7) AppleWebKit/537.36 (KHTML, like Gecko) Chrome/121.0.0.0 Safari/537.36" etag="RJDXTaC0qE61ylkB4E98" version="22.1.21" type="github">
  <diagram name="Page-1" id="GnvURoskgF6pgVR7ltKW">
    <mxGraphModel dx="1434" dy="1955" grid="1" gridSize="10" guides="1" tooltips="1" connect="1" arrows="1" fold="1" page="1" pageScale="1" pageWidth="827" pageHeight="1169" math="0" shadow="0">
      <root>
        <mxCell id="0" />
        <mxCell id="1" parent="0" />
        <mxCell id="kMPxljKF4UXbcINyfZyh-27" value="" style="rounded=1;whiteSpace=wrap;html=1;arcSize=3;" parent="1" vertex="1">
          <mxGeometry x="320" y="-280" width="470" height="780" as="geometry" />
        </mxCell>
        <mxCell id="kMPxljKF4UXbcINyfZyh-28" value="" style="group" parent="1" vertex="1" connectable="0">
          <mxGeometry x="330" y="-230" width="450" height="720" as="geometry" />
        </mxCell>
        <mxCell id="fp_4tm2POYkT8Q4frhIq-28" value="&lt;font style=&quot;font-size: 15px;&quot;&gt;vCloud&lt;/font&gt;" style="points=[[0,0],[0.25,0],[0.5,0],[0.75,0],[1,0],[1,0.25],[1,0.5],[1,0.75],[1,1],[0.75,1],[0.5,1],[0.25,1],[0,1],[0,0.75],[0,0.5],[0,0.25]];outlineConnect=0;gradientColor=none;html=1;whiteSpace=wrap;fontSize=12;fontStyle=0;container=0;pointerEvents=0;collapsible=0;recursiveResize=0;shape=mxgraph.aws4.group;grIcon=mxgraph.aws4.group_aws_cloud_alt;strokeColor=#232F3E;fillColor=none;verticalAlign=top;align=left;spacingLeft=30;fontColor=#232F3E;dashed=0;" parent="kMPxljKF4UXbcINyfZyh-28" vertex="1">
          <mxGeometry y="170" width="450" height="550" as="geometry" />
        </mxCell>
        <mxCell id="fp_4tm2POYkT8Q4frhIq-5" value="API Gateway" style="sketch=0;points=[[0,0,0],[0.25,0,0],[0.5,0,0],[0.75,0,0],[1,0,0],[0,1,0],[0.25,1,0],[0.5,1,0],[0.75,1,0],[1,1,0],[0,0.25,0],[0,0.5,0],[0,0.75,0],[1,0.25,0],[1,0.5,0],[1,0.75,0]];outlineConnect=0;fontColor=#232F3E;fillColor=#8C4FFF;strokeColor=#ffffff;dashed=0;verticalLabelPosition=bottom;verticalAlign=top;align=center;html=1;fontSize=12;fontStyle=0;aspect=fixed;shape=mxgraph.aws4.resourceIcon;resIcon=mxgraph.aws4.api_gateway;" parent="kMPxljKF4UXbcINyfZyh-28" vertex="1">
          <mxGeometry x="190" y="190" width="70" height="70" as="geometry" />
        </mxCell>
        <mxCell id="kMPxljKF4UXbcINyfZyh-2" style="edgeStyle=orthogonalEdgeStyle;rounded=0;orthogonalLoop=1;jettySize=auto;html=1;entryX=0.5;entryY=0;entryDx=0;entryDy=0;entryPerimeter=0;" parent="kMPxljKF4UXbcINyfZyh-28" source="fp_4tm2POYkT8Q4frhIq-5" target="F4uf8b6JVxHDHdUwgC62-24" edge="1">
          <mxGeometry relative="1" as="geometry" />
        </mxCell>
        <mxCell id="kMPxljKF4UXbcINyfZyh-3" value="Invoke" style="edgeLabel;html=1;align=center;verticalAlign=middle;resizable=0;points=[];" parent="kMPxljKF4UXbcINyfZyh-2" vertex="1" connectable="0">
          <mxGeometry x="-0.15" y="2" relative="1" as="geometry">
            <mxPoint y="5" as="offset" />
          </mxGeometry>
        </mxCell>
        <mxCell id="fp_4tm2POYkT8Q4frhIq-32" value="Has Such&amp;nbsp; Survey&lt;br style=&quot;border-color: var(--border-color); color: rgb(0, 0, 0); font-size: 11px;&quot;&gt;&lt;span style=&quot;color: rgb(0, 0, 0); font-size: 11px; background-color: rgb(255, 255, 255);&quot;&gt;Distribution?&lt;/span&gt;" style="sketch=0;points=[[0,0,0],[0.25,0,0],[0.5,0,0],[0.75,0,0],[1,0,0],[0,1,0],[0.25,1,0],[0.5,1,0],[0.75,1,0],[1,1,0],[0,0.25,0],[0,0.5,0],[0,0.75,0],[1,0.25,0],[1,0.5,0],[1,0.75,0]];outlineConnect=0;fontColor=#232F3E;fillColor=#C925D1;strokeColor=#ffffff;dashed=0;verticalLabelPosition=bottom;verticalAlign=top;align=center;html=1;fontSize=12;fontStyle=0;aspect=fixed;shape=mxgraph.aws4.resourceIcon;resIcon=mxgraph.aws4.rds;" parent="kMPxljKF4UXbcINyfZyh-28" vertex="1">
          <mxGeometry x="320" y="340" width="70" height="70" as="geometry" />
        </mxCell>
        <mxCell id="F4uf8b6JVxHDHdUwgC62-24" value="" style="sketch=0;points=[[0,0,0],[0.25,0,0],[0.5,0,0],[0.75,0,0],[1,0,0],[0,1,0],[0.25,1,0],[0.5,1,0],[0.75,1,0],[1,1,0],[0,0.25,0],[0,0.5,0],[0,0.75,0],[1,0.25,0],[1,0.5,0],[1,0.75,0]];outlineConnect=0;fontColor=#232F3E;fillColor=#ED7100;strokeColor=#ffffff;dashed=0;verticalLabelPosition=bottom;verticalAlign=top;align=center;html=1;fontSize=12;fontStyle=0;aspect=fixed;shape=mxgraph.aws4.resourceIcon;resIcon=mxgraph.aws4.lambda;" parent="kMPxljKF4UXbcINyfZyh-28" vertex="1">
          <mxGeometry x="190" y="340" width="70" height="70" as="geometry" />
        </mxCell>
        <mxCell id="kMPxljKF4UXbcINyfZyh-1" value="End" style="rounded=1;whiteSpace=wrap;html=1;" parent="kMPxljKF4UXbcINyfZyh-28" vertex="1">
          <mxGeometry x="181.5" y="680" width="87" height="30" as="geometry" />
        </mxCell>
        <mxCell id="kMPxljKF4UXbcINyfZyh-10" style="edgeStyle=orthogonalEdgeStyle;rounded=0;orthogonalLoop=1;jettySize=auto;html=1;" parent="kMPxljKF4UXbcINyfZyh-28" source="fp_4tm2POYkT8Q4frhIq-7" target="kMPxljKF4UXbcINyfZyh-1" edge="1">
          <mxGeometry relative="1" as="geometry" />
        </mxCell>
        <mxCell id="fp_4tm2POYkT8Q4frhIq-7" value="" style="sketch=0;points=[[0,0,0],[0.25,0,0],[0.5,0,0],[0.75,0,0],[1,0,0],[0,1,0],[0.25,1,0],[0.5,1,0],[0.75,1,0],[1,1,0],[0,0.25,0],[0,0.5,0],[0,0.75,0],[1,0.25,0],[1,0.5,0],[1,0.75,0]];outlineConnect=0;fontColor=#232F3E;fillColor=#E7157B;strokeColor=#ffffff;dashed=0;verticalLabelPosition=bottom;verticalAlign=top;align=center;html=1;fontSize=12;fontStyle=0;aspect=fixed;shape=mxgraph.aws4.resourceIcon;resIcon=mxgraph.aws4.sqs;" parent="kMPxljKF4UXbcINyfZyh-28" vertex="1">
          <mxGeometry x="189.99779141104295" y="510" width="70" height="70" as="geometry" />
        </mxCell>
        <mxCell id="kMPxljKF4UXbcINyfZyh-6" style="edgeStyle=orthogonalEdgeStyle;rounded=0;orthogonalLoop=1;jettySize=auto;html=1;entryX=1;entryY=0.5;entryDx=0;entryDy=0;" parent="kMPxljKF4UXbcINyfZyh-28" source="fp_4tm2POYkT8Q4frhIq-32" target="kMPxljKF4UXbcINyfZyh-1" edge="1">
          <mxGeometry relative="1" as="geometry">
            <Array as="points">
              <mxPoint x="430" y="375" />
              <mxPoint x="430" y="695" />
            </Array>
          </mxGeometry>
        </mxCell>
        <mxCell id="kMPxljKF4UXbcINyfZyh-7" value="NO" style="edgeLabel;html=1;align=center;verticalAlign=middle;resizable=0;points=[];" parent="kMPxljKF4UXbcINyfZyh-6" vertex="1" connectable="0">
          <mxGeometry x="-0.3213" y="-3" relative="1" as="geometry">
            <mxPoint as="offset" />
          </mxGeometry>
        </mxCell>
        <mxCell id="kMPxljKF4UXbcINyfZyh-4" style="edgeStyle=orthogonalEdgeStyle;rounded=0;orthogonalLoop=1;jettySize=auto;html=1;entryX=0;entryY=0.5;entryDx=0;entryDy=0;entryPerimeter=0;" parent="kMPxljKF4UXbcINyfZyh-28" source="F4uf8b6JVxHDHdUwgC62-24" target="fp_4tm2POYkT8Q4frhIq-32" edge="1">
          <mxGeometry relative="1" as="geometry" />
        </mxCell>
        <mxCell id="kMPxljKF4UXbcINyfZyh-8" style="edgeStyle=orthogonalEdgeStyle;rounded=0;orthogonalLoop=1;jettySize=auto;html=1;entryX=1;entryY=0.5;entryDx=0;entryDy=0;" parent="kMPxljKF4UXbcINyfZyh-28" source="fp_4tm2POYkT8Q4frhIq-32" target="kMPxljKF4UXbcINyfZyh-11" edge="1">
          <mxGeometry relative="1" as="geometry">
            <Array as="points">
              <mxPoint x="355" y="470" />
            </Array>
          </mxGeometry>
        </mxCell>
        <mxCell id="kMPxljKF4UXbcINyfZyh-9" value="YES" style="edgeLabel;html=1;align=center;verticalAlign=middle;resizable=0;points=[];" parent="kMPxljKF4UXbcINyfZyh-8" vertex="1" connectable="0">
          <mxGeometry x="-0.4476" relative="1" as="geometry">
            <mxPoint x="-105" as="offset" />
          </mxGeometry>
        </mxCell>
        <mxCell id="kMPxljKF4UXbcINyfZyh-13" style="edgeStyle=orthogonalEdgeStyle;rounded=0;orthogonalLoop=1;jettySize=auto;html=1;" parent="kMPxljKF4UXbcINyfZyh-28" source="kMPxljKF4UXbcINyfZyh-11" target="fp_4tm2POYkT8Q4frhIq-7" edge="1">
          <mxGeometry relative="1" as="geometry">
            <Array as="points">
              <mxPoint x="84" y="545" />
            </Array>
          </mxGeometry>
        </mxCell>
        <mxCell id="kMPxljKF4UXbcINyfZyh-16" value="YES" style="edgeLabel;html=1;align=center;verticalAlign=middle;resizable=0;points=[];" parent="kMPxljKF4UXbcINyfZyh-13" vertex="1" connectable="0">
          <mxGeometry x="-0.1298" relative="1" as="geometry">
            <mxPoint x="10" as="offset" />
          </mxGeometry>
        </mxCell>
        <mxCell id="kMPxljKF4UXbcINyfZyh-15" style="edgeStyle=orthogonalEdgeStyle;rounded=0;orthogonalLoop=1;jettySize=auto;html=1;entryX=0;entryY=0.5;entryDx=0;entryDy=0;" parent="kMPxljKF4UXbcINyfZyh-28" source="kMPxljKF4UXbcINyfZyh-11" target="kMPxljKF4UXbcINyfZyh-1" edge="1">
          <mxGeometry relative="1" as="geometry">
            <Array as="points">
              <mxPoint x="20" y="470" />
              <mxPoint x="20" y="695" />
            </Array>
          </mxGeometry>
        </mxCell>
        <mxCell id="kMPxljKF4UXbcINyfZyh-17" value="NO" style="edgeLabel;html=1;align=center;verticalAlign=middle;resizable=0;points=[];" parent="kMPxljKF4UXbcINyfZyh-15" vertex="1" connectable="0">
          <mxGeometry x="-0.2909" y="-3" relative="1" as="geometry">
            <mxPoint as="offset" />
          </mxGeometry>
        </mxCell>
        <mxCell id="kMPxljKF4UXbcINyfZyh-11" value="Is Distribution State transferable&lt;br&gt;?" style="rhombus;whiteSpace=wrap;html=1;" parent="kMPxljKF4UXbcINyfZyh-28" vertex="1">
          <mxGeometry x="44" y="430" width="80" height="80" as="geometry" />
        </mxCell>
        <mxCell id="kMPxljKF4UXbcINyfZyh-24" value="" style="group" parent="kMPxljKF4UXbcINyfZyh-28" vertex="1" connectable="0">
          <mxGeometry width="450" height="130" as="geometry" />
        </mxCell>
        <mxCell id="kMPxljKF4UXbcINyfZyh-19" value="" style="rounded=0;whiteSpace=wrap;html=1;" parent="kMPxljKF4UXbcINyfZyh-24" vertex="1">
          <mxGeometry width="450" height="130" as="geometry" />
        </mxCell>
        <mxCell id="fp_4tm2POYkT8Q4frhIq-1" value="Qualtrics Cloud" style="html=1;whiteSpace=wrap;strokeColor=none;fillColor=#0079D6;labelPosition=center;verticalLabelPosition=middle;verticalAlign=top;align=center;fontSize=12;outlineConnect=0;spacingTop=-6;fontColor=#FFFFFF;sketch=0;shape=mxgraph.sitemap.cloud;" parent="kMPxljKF4UXbcINyfZyh-24" vertex="1">
          <mxGeometry x="140" y="19.058333333333337" width="170" height="91.875" as="geometry" />
        </mxCell>
        <mxCell id="kMPxljKF4UXbcINyfZyh-26" value="&lt;font style=&quot;font-size: 15px;&quot;&gt;Qualtrics&lt;/font&gt;" style="text;html=1;strokeColor=none;fillColor=none;align=center;verticalAlign=middle;whiteSpace=wrap;rounded=0;" parent="kMPxljKF4UXbcINyfZyh-24" vertex="1">
          <mxGeometry x="10" width="60" height="30" as="geometry" />
        </mxCell>
        <mxCell id="kMPxljKF4UXbcINyfZyh-22" style="edgeStyle=orthogonalEdgeStyle;rounded=0;orthogonalLoop=1;jettySize=auto;html=1;" parent="kMPxljKF4UXbcINyfZyh-28" source="fp_4tm2POYkT8Q4frhIq-1" target="fp_4tm2POYkT8Q4frhIq-5" edge="1">
          <mxGeometry relative="1" as="geometry" />
        </mxCell>
        <mxCell id="kMPxljKF4UXbcINyfZyh-23" value="Invoke" style="edgeLabel;html=1;align=center;verticalAlign=middle;resizable=0;points=[];" parent="kMPxljKF4UXbcINyfZyh-22" vertex="1" connectable="0">
          <mxGeometry x="-0.3406" relative="1" as="geometry">
            <mxPoint y="13" as="offset" />
          </mxGeometry>
        </mxCell>
        <mxCell id="kMPxljKF4UXbcINyfZyh-29" value="&lt;font style=&quot;font-size: 16px;&quot; face=&quot;Times New Roman&quot;&gt;Qualtrics Survey Event Receiver&lt;/font&gt;" style="text;html=1;strokeColor=none;fillColor=none;align=center;verticalAlign=middle;whiteSpace=wrap;rounded=0;" parent="1" vertex="1">
          <mxGeometry x="443.13" y="-270" width="223.75" height="30" as="geometry" />
        </mxCell>
      </root>
    </mxGraphModel>
  </diagram>
</mxfile>
